<?xml version="1.0" encoding="UTF-8"?>
<svg width="24px" height="22px" viewBox="0 0 24 22" version="1.1" xmlns="http://www.w3.org/2000/svg" xmlns:xlink="http://www.w3.org/1999/xlink">
    <!-- Generator: Sketch 45.1 (43504) - http://www.bohemiancoding.com/sketch -->
    <title>icon/dibu/shouye-a@2x</title>
    <desc>Created with Sketch.</desc>
    <defs>
        <path d="M2.71243748,6.49677143 C3.41582552,2.7970816 6.66698034,-1.70942915e-16 10.5714286,-8.8817842e-16 L10.5714286,0 L13.4285714,0 L13.4285714,-8.8817842e-16 C17.3330197,-1.60541392e-15 20.5841745,2.7970816 21.2875625,6.49677143 C22.8373465,6.8489629 24,8.32094309 24,10.0833333 C24,11.7918528 22.9073376,13.2274447 21.4285714,13.634484 L21.4285714,14 C21.4285714,18.418278 17.8468494,22 13.4285714,22 L10.5714286,22 C6.15315057,22 2.57142857,18.418278 2.57142857,14 L2.57142857,13.634484 C1.09266239,13.2274447 0,11.7918528 0,10.0833333 C0,8.32094309 1.16265346,6.8489629 2.71243748,6.49677143 Z" id="path-1"></path>
    </defs>
    <g id="Symbols" stroke="none" stroke-width="1" fill="none" fill-rule="evenodd">
        <g id="icon/dibu/shouye-a">
            <g id="Combined-Shape">
                <use fill="#FFD743" fill-rule="evenodd" xlink:href="#path-1"></use>
                <path stroke="#282E37" stroke-width="1" d="M3.20363882,6.59015903 L3.14249018,6.91178945 L2.82323841,6.98434004 C1.48403507,7.28867664 0.5,8.57323561 0.5,10.0833333 C0.5,11.5445431 1.42212668,12.7995361 2.70412153,13.1524128 L3.07142857,13.2535163 L3.07142857,14 C3.07142857,18.1421356 6.42929295,21.5 10.5714286,21.5 L13.4285714,21.5 C17.5707071,21.5 20.9285714,18.1421356 20.9285714,14 L20.9285714,13.2535163 L21.2958785,13.1524128 C22.5778733,12.7995361 23.5,11.5445431 23.5,10.0833333 C23.5,8.57323561 22.5159649,7.28867664 21.1767616,6.98434004 L20.8575098,6.91178945 L20.7963612,6.59015903 C20.1288706,3.079283 17.0455196,0.5 13.4285714,0.5 L10.5714286,0.5 C6.95448037,0.5 3.87112942,3.07928301 3.20363882,6.59015903 Z"></path>
            </g>
            <path d="M7.20570997,13.5759599 C7.07185921,14.0272778 7,14.5052471 7,15 C7,17.7614237 9.23857625,19.0691209 12,19.0691209 C14.7614237,19.0691209 17,17.7614237 17,15 C17,14.5052471 16.9281408,14.0272778 16.79429,13.5759599 C18.1024201,12.9183007 19,11.5639709 19,10 L19,10 C19,7.790861 17.209139,6 15,6 L15,6 L9,6 L9,6 C6.790861,6 5,7.790861 5,10 L5,10 L5,10 C5,11.5639709 5.8975799,12.9183007 7.20570997,13.5759599 Z" id="Combined-Shape" stroke="#282E37"></path>
            <path d="M10,15 C10,16.1154578 10.9042572,17.0197151 12.0197151,17.0197151 L12.0197151,17.0197151 C13.1351729,17.0197151 14.0394301,16.1154578 14.0394301,15" id="Oval-15" stroke="#282E37" stroke-linecap="round"></path>
        </g>
    </g>
</svg>