<?xml version="1.0" encoding="UTF-8"?>
<svg width="24px" height="22px" viewBox="0 0 24 22" version="1.1" xmlns="http://www.w3.org/2000/svg" xmlns:xlink="http://www.w3.org/1999/xlink">
    <!-- Generator: Sketch 45.1 (43504) - http://www.bohemiancoding.com/sketch -->
    <title>icon/dibu/wode-b@2x</title>
    <desc>Created with Sketch.</desc>
    <defs></defs>
    <g id="Symbols" stroke="none" stroke-width="1" fill="none" fill-rule="evenodd">
        <g id="icon/dibu/wode-b" stroke="#979797">
            <path d="M7.47245646,9.12368104 L7.77710221,9.56432981 L7.31651949,9.837906 C4.39487129,11.5733019 2.5,14.6349406 2.5,17.8994949 C2.5,19.991741 6.63800588,21.5 12,21.5 C17.3619941,21.5 21.5,19.991741 21.5,17.8994949 C21.5,14.6349406 19.6051287,11.5733019 16.6834805,9.837906 L16.2228978,9.56432981 L16.5275435,9.12368104 C17.1575181,8.21246686 17.5,7.13250878 17.5,6 C17.5,2.96243388 15.0375661,0.5 12,0.5 C8.96243388,0.5 6.5,2.96243388 6.5,6 C6.5,7.13250878 6.84248187,8.21246686 7.47245646,9.12368104 Z" id="Combined-Shape"></path>
            <path d="M10,7 C10,8.11545783 10.9042572,9.01971507 12.0197151,9.01971507 L12.0197151,9.01971507 C13.1351729,9.01971507 14.0394301,8.11545783 14.0394301,7" id="Oval-15-Copy-2" stroke-linecap="round"></path>
        </g>
    </g>
</svg>