<?xml version="1.0" encoding="UTF-8"?>
<svg width="15px" height="16px" viewBox="0 0 15 16" version="1.1" xmlns="http://www.w3.org/2000/svg" xmlns:xlink="http://www.w3.org/1999/xlink">
    <!-- Generator: Sketch 45.1 (43504) - http://www.bohemiancoding.com/sketch -->
    <title>icon/wode/tuijian@2x</title>
    <desc>Created with Sketch.</desc>
    <defs></defs>
    <g id="Symbols" stroke="none" stroke-width="1" fill="none" fill-rule="evenodd">
        <g id="icon/wode/tuijian" stroke="#333333">
            <rect id="Rectangle-11" x="0.5" y="4.5" width="14.0708979" height="3" rx="1.5"></rect>
            <path d="M1.66642868,7.51300212 L1.66642868,14.4980118 C1.66642868,15.0502965 2.11414393,15.4980118 2.66642868,15.4980118 L12.4974965,15.4980118 C13.0497812,15.4980118 13.4974965,15.0502965 13.4974965,14.4980118 L13.4974965,7.51300212 L1.66642868,7.51300212 Z" id="Rectangle-11-Copy"></path>
            <path d="M9.65165043,4.90165043 C10.4800776,4.90165043 11.1516504,3.41350405 11.1516504,2.34192177 C11.1516504,1.2703395 10.4800776,0.401650429 9.65165043,0.401650429 C8.8232233,0.401650429 8.15165043,1.2703395 8.15165043,2.34192177 C8.15165043,3.41350405 8.8232233,4.90165043 9.65165043,4.90165043 Z" id="Oval-5" transform="translate(9.651650, 2.651650) rotate(45.000000) translate(-9.651650, -2.651650) "></path>
            <path d="M5.65165043,4.90165043 C6.48007755,4.90165043 7.15165043,3.41350405 7.15165043,2.34192177 C7.15165043,1.2703395 6.48007755,0.401650429 5.65165043,0.401650429 C4.8232233,0.401650429 4.15165043,1.2703395 4.15165043,2.34192177 C4.15165043,3.41350405 4.8232233,4.90165043 5.65165043,4.90165043 Z" id="Oval-5-Copy" transform="translate(5.651650, 2.651650) scale(-1, 1) rotate(45.000000) translate(-5.651650, -2.651650) "></path>
        </g>
    </g>
</svg>