<?xml version="1.0" encoding="UTF-8"?>
<svg width="78px" height="78px" viewBox="0 0 78 78" version="1.1" xmlns="http://www.w3.org/2000/svg" xmlns:xlink="http://www.w3.org/1999/xlink">
    <!-- Generator: Sketch 45.1 (43504) - http://www.bohemiancoding.com/sketch -->
    <title>chenggong/shibai/3@2x</title>
    <desc>Created with Sketch.</desc>
    <defs></defs>
    <g id="Symbols" stroke="none" stroke-width="1" fill="none" fill-rule="evenodd">
        <g id="chenggong/shibai/3">
            <circle id="Oval-Copy-2" fill="#FFD743" cx="38.5591732" cy="38.5591732" r="38.5591732"></circle>
            <g id="shibai-copy-3" transform="translate(39.000000, 38.000000) rotate(-30.000000) translate(-39.000000, -38.000000) translate(14.000000, 12.000000)">
                <path d="M23.1021706,2.3908046 L19.1666667,2.3908046 L19.1666667,2.3908046 C11.485273,2.3908046 5.15243143,8.16464226 4.2713828,15.6090767 C4.04503727,15.5639137 3.81098735,15.5402299 3.57142857,15.5402299 C1.59898304,15.5402299 0,17.1458294 0,19.1264368 C0,21.1070442 1.59898304,22.7126437 3.57142857,22.7126437 C3.77423346,22.7126437 3.97309019,22.6956697 4.16666667,22.6630593 L4.16666667,27.985434 C2.32927098,29.7986631 1.19047619,32.3180658 1.19047619,35.1034483 L1.19047619,35.1034483 L1.19047619,37.6551724 C1.19047619,44.5872982 6.8100745,50.2068966 13.7422003,50.2068966 L13.7422003,50.2068966 L19.8397595,50.2068966 C20.5335763,51.2380668 22.980608,52 25.8928571,52 C28.8051063,52 31.252138,51.2380668 31.9459548,50.2068966 L36.2577997,50.2068966 C43.1899255,50.2068966 48.8095238,44.5872982 48.8095238,37.6551724 L48.8095238,35.1034483 C48.8095238,32.3180658 47.670729,29.7986631 45.8333333,27.985434 L45.8333333,22.6630593 C46.0269098,22.6956697 46.2257665,22.7126437 46.4285714,22.7126437 C48.401017,22.7126437 50,21.1070442 50,19.1264368 C50,17.1458294 48.401017,15.5402299 46.4285714,15.5402299 C46.1890127,15.5402299 45.9549627,15.5639137 45.7286172,15.6090767 C44.8475686,8.16464226 38.514727,2.3908046 30.8333333,2.3908046 L30.8333333,2.3908046 L27.0820157,2.3908046 C27.0897526,2.03110413 27.4025304,1.56342916 28.0203491,0.987779705 C29.252601,0.178579541 29.0002988,-0.133441266 27.2634424,0.0517172855 C25.7290643,0.215290525 24.3419737,0.994986296 23.1021706,2.3908046 Z" id="Combined-Shape" fill="#333333" fill-rule="evenodd"></path>
                <ellipse id="Oval-8-Copy-3" fill="#FFFFFF" fill-rule="evenodd" cx="25.8349818" cy="46.9195402" rx="5.59688652" ry="2.09195402"></ellipse>
                <path d="M29.6103385,10.7586207 L36.0714286,10.7586207 L36.0714286,10.7586207 C38.8328523,10.7586207 41.0714286,12.9971969 41.0714286,15.7586207 L41.0714286,27.2758621 L41.0714286,27.2758621 C41.0714286,27.5869755 41.0430139,27.8914524 40.988638,28.186839 C43.8917907,29.9368985 45.8333333,33.1203622 45.8333333,36.7572975 L45.8333333,36.918217 C45.8333333,42.529938 41.2841347,47.0791366 35.6724138,47.0791366 L14.3275862,47.0791366 L14.3275862,47.0791366 C8.7158653,47.0791366 4.16666667,42.529938 4.16666667,36.918217 L4.16666667,36.7572975 C4.16666667,33.1203622 6.10820929,29.9368985 9.01136197,28.186839 C8.95698615,27.8914524 8.92857143,27.5869755 8.92857143,27.2758621 L8.92857143,15.7586207 L8.92857143,15.7586207 C8.92857143,12.9971969 11.1671477,10.7586207 13.9285714,10.7586207 L13.9285714,10.7586207 L19.7477444,10.7586207 C21.5812206,11.0004765 23.333961,11.7110432 25.0059654,12.890321 C26.3770575,11.7087215 27.9118485,10.9981547 29.6103385,10.7586207 Z" id="Combined-Shape-Copy-20" fill="#FFFFFF" fill-rule="evenodd"></path>
                <path d="M22.9166667,31.0804598 C22.4235553,31.0804598 22.0238095,30.6790599 22.0238095,30.183908 C22.0238095,29.6887562 22.4235553,29.2873563 22.9166667,29.2873563 C23.4097781,29.2873563 23.8095238,29.6887562 23.8095238,30.183908 C23.8095238,30.6790599 23.4097781,31.0804598 22.9166667,31.0804598 Z M27.0833333,31.0804598 C26.5902219,31.0804598 26.1904762,30.6790599 26.1904762,30.183908 C26.1904762,29.6887562 26.5902219,29.2873563 27.0833333,29.2873563 C27.5764447,29.2873563 27.9761905,29.6887562 27.9761905,30.183908 C27.9761905,30.6790599 27.5764447,31.0804598 27.0833333,31.0804598 Z" id="Combined-Shape-Copy-21" fill="#333333" fill-rule="evenodd"></path>
                <path d="M16.0714286,35.862069 C18.0984909,39.855672 21.2704265,41.8524735 25.5872355,41.8524735 C29.9040445,41.8524735 33.1178184,39.855672 35.2285572,35.862069" id="Path-6-Copy-4" stroke="#333333" stroke-width="2" stroke-linecap="round"></path>
                <path d="M10.5230639,19.1264368 L21.4681469,19.1264368 L21.4681469,19.1264368 C22.5727164,19.1264368 23.4681469,20.0218673 23.4681469,21.1264368 C23.4681469,21.423567 23.4019421,21.7169641 23.2743447,21.9853021 L21.9667856,24.735105 C21.2552783,26.2314083 19.4654942,26.867611 17.969191,26.1561037 C17.8586325,26.103532 17.7513956,26.0442423 17.6480819,25.9785671 L12.6561882,22.805285 L12.6561882,22.805285 C12.6257536,22.7859382 12.5956704,22.7660441 12.5659531,22.7456125 L9.95624207,20.9513496 L9.95624207,20.9513496 C9.50092286,20.6383025 9.3855885,20.0154186 9.69863555,19.5600994 C9.88528359,19.2886244 10.1936157,19.1264368 10.5230639,19.1264368 L10.5230639,19.1264368 Z M39.4769361,19.1264368 L39.4769361,19.1264368 C39.8063843,19.1264368 40.1147164,19.2886244 40.3013644,19.5600994 C40.6144115,20.0154186 40.4990771,20.6383025 40.0437579,20.9513496 L40.0437579,20.9513496 L37.4340469,22.7456125 C37.4043296,22.7660441 37.3742464,22.7859382 37.3438118,22.805285 L37.3438118,22.805285 L32.3519181,25.9785671 C32.2486044,26.0442423 32.1413675,26.103532 32.030809,26.1561037 C30.5345058,26.867611 28.7447217,26.2314083 28.0332144,24.735105 L26.7256553,21.9853021 C26.5980579,21.7169641 26.5318531,21.423567 26.5318531,21.1264368 C26.5318531,20.0218673 27.4272836,19.1264368 28.5318531,19.1264368 L28.5318531,19.1264368 L39.4769361,19.1264368 Z" id="Combined-Shape-Copy-23" fill="#333333" fill-rule="evenodd"></path>
                <rect id="Rectangle-2" fill="#333333" fill-rule="evenodd" x="20.1569762" y="19.1264368" width="9.8264793" height="1.44526983" rx="0.722634913"></rect>
            </g>
        </g>
    </g>
</svg>