<?xml version="1.0" encoding="UTF-8"?>
<svg width="375px" height="160px" viewBox="0 0 375 160" version="1.1" xmlns="http://www.w3.org/2000/svg" xmlns:xlink="http://www.w3.org/1999/xlink">
    <!-- Generator: Sketch 45.1 (43504) - http://www.bohemiancoding.com/sketch -->
    <title>Oval 3 Copy@2x</title>
    <desc>Created with Sketch.</desc>
    <defs>
        <polyline id="path-1" points="0 0 375 0 375 160 0 160"></polyline>
        <linearGradient x1="0.0889502846%" y1="-25.8267387%" x2="110.056169%" y2="-25.8267373%" id="linearGradient-3">
            <stop stop-color="#FFFFFF" offset="0%"></stop>
            <stop stop-color="#FFFFFF" offset="100%"></stop>
        </linearGradient>
    </defs>
    <g id="Symbols" stroke="none" stroke-width="1" fill="none" fill-rule="evenodd">
        <g id="Oval-3-Copy">
            <g>
                <mask id="mask-2" fill="white">
                    <use xlink:href="#path-1"></use>
                </mask>
                <use id="Mask" fill="#FFD743" xlink:href="#path-1"></use>
                <ellipse fill="url(#linearGradient-3)" opacity="0.323369565" mask="url(#mask-2)" transform="translate(346.897923, 115.480174) rotate(-132.000000) translate(-346.897923, -115.480174) " cx="346.897923" cy="115.480174" rx="89.5" ry="77.52"></ellipse>
                <ellipse id="Oval-3-Copy-2" fill="url(#linearGradient-3)" opacity="0.323369565" mask="url(#mask-2)" transform="translate(19.897923, 3.480174) rotate(-132.000000) translate(-19.897923, -3.480174) " cx="19.8979229" cy="3.48017411" rx="89.5" ry="77.52"></ellipse>
            </g>
            <text id="分享朋友圈奖励1元" font-family="PingFangSC-Regular, PingFang SC" font-size="16" font-weight="normal" fill="#333333">
                <tspan x="181" y="108">分享朋友圈奖励1元</tspan>
            </text>
            <text id="每日分享" font-family="PingFangSC-Semibold, PingFang SC" font-size="34" font-weight="500" fill="#4A4A4A">
                <tspan x="181" y="83">每日分享</tspan>
            </text>
            <g id="Group-2" transform="translate(20.000000, 27.000000)">
                <path d="M49.2348176,104.6664 L51.5155521,101.725781 C51.900435,100.819918 52.447238,100.366986 53.1559611,100.366986 C53.8646842,100.366986 57.031014,100.124756 62.6549504,99.6402965 C63.3551037,99.42872 63.7051804,98.87076 63.7051804,97.9664166 L63.7051804,97.2049584 L68.548576,97.2049584 L69.7279218,99.6402965 C71.0517378,102.365294 70.6148894,104.040662 68.4173764,104.6664 C66.2198634,105.292138 63.3404955,104.870176 59.7792728,103.400515 C56.1214098,102.409615 54.0621111,102.343654 53.6013768,103.20263 C53.1406425,104.061606 52.2921981,104.713009 51.0560436,105.156838 C50.4878959,105.582307 49.9495512,105.795042 49.4410097,105.795042 C48.9324683,105.795042 48.8637375,105.418828 49.2348176,104.6664 Z" id="Path-4-Copy-5" fill="#EFE5D4"></path>
                <path d="M92.2396216,104.6664 L89.9588871,101.725781 C89.5740042,100.819918 89.0272012,100.366986 88.3184781,100.366986 C87.609755,100.366986 84.4434252,100.124756 78.8194888,99.6402965 C78.1193354,99.42872 77.7692588,98.87076 77.7692588,97.9664166 L77.7692588,97.2049584 L72.9258632,97.2049584 L71.7465174,99.6402965 C70.4227013,102.365294 70.8595498,104.040662 73.0570628,104.6664 C75.2545758,105.292138 78.1339437,104.870176 81.6951664,103.400515 C85.3530294,102.409615 87.412328,102.343654 87.8730623,103.20263 C88.3337966,104.061606 89.182241,104.713009 90.4183956,105.156838 C90.9865433,105.582307 91.5248879,105.795042 92.0334294,105.795042 C92.5419709,105.795042 92.6107017,105.418828 92.2396216,104.6664 Z" id="Path-4-Copy-6" fill="#EFE5D4"></path>
                <g id="Group">
                    <path d="M141.492822,16.4387925 L138.539836,17.5355687 C137.630163,17.9188397 137.175326,18.4633527 137.175326,19.1691077 C137.175326,19.8748627 136.932078,23.0279319 136.44558,28.6283154 C136.233114,29.3255364 135.672807,29.674147 134.764661,29.674147 L134,29.674147 L134,35.6716652 L136.44558,35.6716652 C139.182038,36.9899371 140.864452,36.5549182 141.492822,34.3666083 C142.121191,32.1782985 141.697455,29.3109894 140.221612,25.764681 C139.226546,22.1221371 139.160307,20.0714628 140.022896,19.612658 C140.885484,19.1538533 141.539627,18.700431 141.985322,18.2523913 C142.41258,17.6866229 142.62621,17.1505329 142.62621,16.6441212 C142.62621,16.1377094 142.248414,16.0692666 141.492822,16.4387925 Z" id="Path-4-Copy-7" fill="#EFE5D4"></path>
                    <path d="M71.459031,72.5424789 L71.459031,72.5741826 C71.2224265,72.5554091 70.9864816,72.5433688 70.7511962,72.5380617 C70.5159108,72.5433688 70.2799659,72.5554091 70.0433614,72.5741826 L70.0433614,72.5424789 C66.7772626,72.6574453 63.6397028,74.0846228 60.6306821,76.8240114 C57.1893588,79.9569648 56.5538998,82.9314964 58.7243052,85.7476061 C63.6959055,89.0008413 67.1545837,92.604526 69.1003395,96.5586601 C71.0460954,100.512794 69.9301,102.326753 65.7523534,102.000536 C64.8461504,101.892161 62.8712372,101.665457 59.8276138,101.320423 C55.2621786,100.802872 52.4033126,99.9045173 55.6732192,99.9045173 C57.8531569,99.9045173 58.1293252,99.0215889 56.5017241,97.2557321 C50.1452913,90.5600535 45.9895836,86.2867965 44.0346011,84.4359611 C42.0796185,82.5851257 41.475817,79.4370687 42.2231966,74.9917902 C46.0928761,60.5502795 48.7296532,51.6837666 50.1335279,48.3922515 C51.5374026,45.1007363 51.2586258,43.2537522 49.2971976,42.851299 C46.3241158,44.3093092 38.5389923,45.4033786 25.9418271,46.133507 C7.04607942,47.2286996 4,33.9573722 4,31.6625224 C4,30.1326226 4.76105677,29.3134346 6.28317031,29.2049584 L70.7511962,29.2049584 L135.219222,29.2049584 C136.741336,29.3134346 137.502392,30.1326226 137.502392,31.6625224 C137.502392,33.9573722 134.456313,47.2286996 115.560565,46.133507 C102.9634,45.4033786 95.1782767,44.3093092 92.2051949,42.851299 C90.2437666,43.2537522 89.9649898,45.1007363 91.3688645,48.3922515 C92.7727393,51.6837666 95.4095164,60.5502795 99.2791958,74.9917902 C100.026575,79.4370687 99.4227739,82.5851257 97.4677914,84.4359611 C95.5128088,86.2867965 91.3571011,90.5600535 85.0006683,97.2557321 C83.3730672,99.0215889 83.6492355,99.9045173 85.8291732,99.9045173 C89.0990798,99.9045173 86.2402138,100.802872 81.6747787,101.320423 C78.6311553,101.665457 76.6562421,101.892161 75.750039,102.000536 C71.5722924,102.326753 70.456297,100.512794 72.4020529,96.5586601 C74.3478088,92.604526 77.8064869,89.0008413 82.7780873,85.7476061 C84.9484926,82.9314964 84.3130337,79.9569648 80.8717103,76.8240114 C77.8626896,74.0846228 74.7251298,72.6574453 71.459031,72.5424789 Z" id="Combined-Shape-Copy-14" fill="#000000"></path>
                    <ellipse id="Oval-Copy-7" fill="#111111" cx="71.792987" cy="27.4835695" rx="11.792987" ry="14.2786111"></ellipse>
                    <ellipse id="Oval-Copy-8" fill="#1D1D1D" cx="71.3154432" cy="47.0194123" rx="13.3154432" ry="20.814454"></ellipse>
                    <ellipse id="Oval-Copy-9" fill="#111111" cx="61.3984375" cy="22.9938892" rx="4.39843749" ry="3.78893082"></ellipse>
                    <ellipse id="Oval-Copy-10" fill="#111111" cx="81.3984375" cy="22.9938892" rx="4.39843749" ry="3.78893082"></ellipse>
                    <path d="M70.819122,19.0625777 C70.1225496,18.5208733 69.284891,18.2049584 68.3837213,18.2049584 C65.9626589,18.2049584 64,20.4851375 64,23.297881 C64,26.1106246 65.9626589,28.3908037 68.3837213,28.3908037 C69.284891,28.3908037 70.1225496,28.0748888 70.819122,27.5331844 C71.5156943,28.0748888 72.353353,28.3908037 73.2545227,28.3908037 C75.6755851,28.3908037 77.6382439,26.1106246 77.6382439,23.297881 C77.6382439,20.4851375 75.6755851,18.2049584 73.2545227,18.2049584 C72.353353,18.2049584 71.5156943,18.5208733 70.819122,19.0625777 Z" id="Combined-Shape-Copy-15" fill="#EFE5D4"></path>
                    <ellipse id="Oval-3-Copy-3" fill="#EFE5D4" cx="71.3192752" cy="30.6641949" rx="10.3192752" ry="6.45923659"></ellipse>
                    <path d="M65,31.2049584 C66.3565192,33.8403174 68.4791927,35.1579969 71.3680205,35.1579969 C74.2568484,35.1579969 76.4075203,33.8403174 77.8200361,31.2049584" id="Path-6-Copy-4" stroke="#000000" stroke-width="1.5" stroke-linecap="round"></path>
                    <path d="M70.9122103,28.4661432 C71.3620531,28.4661432 71.8244207,28.0594432 71.8244207,27.5577532 C71.8244207,27.0560632 71.4160102,27.2365665 70.9122103,27.2365665 C70.4084105,27.2365665 70,27.0560632 70,27.5577532 C70,28.0594432 70.4623676,28.4661432 70.9122103,28.4661432 Z" id="Oval-4-Copy" fill="#111111"></path>
                    <path d="M70.1118277,23.7921617 C69.9546627,23.4458298 69.6058282,23.2049584 69.2007352,23.2049584 L69.2007352,23.2049584 L66.0749562,23.2049584 L66.0749562,23.2049584 C66.0196477,23.2049584 65.9644344,23.2095469 65.9098846,23.2186768 C65.3651764,23.3098433 64.9975081,23.8253217 65.0886746,24.3700299 L65.0886746,24.3700299 L65.3436123,25.8932499 C65.4242632,26.3751287 65.8413126,26.7281783 66.3298939,26.7281783 L66.3298939,26.7281783 L69.2007352,26.7281783 C69.75302,26.7281783 70.2007352,26.2804631 70.2007352,25.7281783 L70.2007352,24.379365 L72.0760744,24.379365 L72.0760744,25.7281783 C72.0760744,26.2804631 72.5237897,26.7281783 73.0760744,26.7281783 L75.9469158,26.7281783 L75.9469158,26.7281783 C76.4354971,26.7281783 76.8525465,26.3751287 76.9331974,25.8932499 L77.188135,24.3700299 L77.188135,24.3700299 C77.2793016,23.8253217 76.9116333,23.3098433 76.366925,23.2186768 C76.3123752,23.2095469 76.257162,23.2049584 76.2018534,23.2049584 L76.2018534,23.2049584 L73.0760744,23.2049584 L73.0760744,23.2049584 C72.6709814,23.2049584 72.322147,23.4458298 72.164982,23.7921617 L70.1118277,23.7921617 Z" id="Combined-Shape-Copy-16" fill="#F5A623"></path>
                    <path d="M68.5903391,12.9867897 L65.7424378,12.2268927 C65.4278673,12.1429568 65.1045279,12.3288551 65.020239,12.6421081 C64.9359501,12.9553612 65.1226302,13.2773465 65.4372007,13.3612824 L81.955028,17.7686851 C82.2695985,17.852621 82.5929379,17.6667227 82.6772268,17.3534697 C82.7615158,17.0402166 82.5748356,16.7182313 82.2602652,16.6342954 L79.4123639,15.8743984 L82.6173538,3.96330636 C82.7859317,3.33680022 82.4125714,2.69282965 81.7834305,2.52495784 L73.2397267,0.245266775 C72.6105857,0.0773949602 71.9639068,0.449191542 71.795329,1.07569768 L68.5903391,12.9867897 Z" id="Combined-Shape-Copy-17" fill="#F5A623"></path>
                    <path d="" id="Path-5-Copy-2" stroke="#979797"></path>
                    <path d="M1.13338794,16.4387925 L4.08637385,17.5355687 C4.99604693,17.9188397 5.45088347,18.4633527 5.45088347,19.1691077 C5.45088347,19.8748627 5.69413215,23.0279319 6.18062952,28.6283154 C6.39309589,29.3255364 6.95340241,29.674147 7.86154907,29.674147 C8.76969574,29.674147 9.02458263,29.674147 8.62620975,29.674147 L8.62620975,35.6716652 L6.18062952,35.6716652 C3.44417143,36.9899371 1.76175757,36.5549182 1.13338794,34.3666083 C0.505018306,32.1782985 0.928754789,29.3109894 2.40459739,25.764681 C3.39966412,22.1221371 3.46590306,20.0714628 2.60331422,19.612658 C1.74072538,19.1538533 1.08658323,18.700431 0.640887774,18.2523913 C0.213629258,17.6866229 0,17.1505329 0,16.6441212 C1.24577848e-17,16.1377094 0.37779598,16.0692666 1.13338794,16.4387925 Z" id="Path-4-Copy-4" fill="#EFE5D4"></path>
                </g>
            </g>
        </g>
    </g>
</svg>